<svg width="52" height="52" viewBox="0 0 52 52" fill="none" xmlns="http://www.w3.org/2000/svg">
<circle cx="26" cy="26" r="26" fill="#FF9940" fill-opacity="0.6"/>
<path d="M42.5417 18.2083C39.9711 18.0669 37.421 18.735 35.25 20.1187C34.725 19.5208 34.1854 18.9229 33.6167 18.3541L33.1938 17.9604L33.3979 17.7854C34.1111 17.1732 34.6193 16.357 34.854 15.4469C35.0887 14.5367 35.0386 13.5765 34.7104 12.6958C34.2364 11.7015 33.4837 10.8662 32.544 10.2915C31.6042 9.71678 30.5178 9.42733 29.4167 9.4583V12.375C29.9356 12.3677 30.447 12.4991 30.8981 12.7554C31.3493 13.0118 31.7239 13.3839 31.9834 13.8333C32.2313 14.4166 31.9834 15.0583 31.2979 15.7437L30.9625 16.05C29.4415 14.7824 27.7715 13.705 25.9896 12.8416C22.3 11.1791 20.4042 11.9521 19.4709 12.8416C19.187 13.1272 18.9594 13.4636 18.8 13.8333L18.5375 14.6062L16.4375 20.9354C18.1 25.0771 22.125 32.4416 30.875 35.6208L38.1667 33.2C38.4126 33.1084 38.6292 32.9522 38.7938 32.7479L39.1 32.4854C41.1854 30.3854 39.8438 26.3458 37.0438 22.4229C38.7063 21.4526 40.6207 21.0007 42.5417 21.125V18.2083ZM37.0146 30.4146H36.9271C35.9208 30.9541 31.75 29.5833 27.025 24.8583C26.5292 24.3625 26.0625 23.8812 25.6396 23.4C25.4938 23.2396 25.3625 23.0646 25.2167 22.8896L24.4438 21.9562L24.0354 21.3875C23.8313 21.1104 23.6271 20.8333 23.4521 20.5708C23.2771 20.3083 23.2188 20.1916 23.1021 20.0021C22.9854 19.8125 22.7813 19.5062 22.65 19.2583C22.5188 19.0104 22.4604 18.9083 22.3729 18.7187C22.2854 18.5291 22.125 18.3104 22.0375 18.1062C21.95 17.9021 21.9063 17.7708 21.8334 17.6104C21.7604 17.45 21.6729 17.2166 21.6146 17.0271C21.5563 16.8375 21.5417 16.75 21.5125 16.6041C21.4834 16.4583 21.425 16.2541 21.3959 16.1083C21.3888 15.9917 21.3888 15.8749 21.3959 15.7583C21.3821 15.6323 21.3821 15.5052 21.3959 15.3791L21.5563 14.9271C21.8042 14.6646 22.8834 14.5916 24.8084 15.4666C26.0939 16.0863 27.311 16.839 28.4396 17.7125C27.8246 17.983 27.1694 18.1505 26.5 18.2083V21.125C28.0496 21.0389 29.5533 20.5677 30.875 19.7541L31.5896 20.425C32.2313 21.0521 32.8 21.6791 33.325 22.2771C32.4446 23.776 32.0953 25.528 32.3334 27.25L35.25 26.6812C35.1505 26.1315 35.1505 25.5684 35.25 25.0187C37.1313 27.8916 37.4813 29.9625 37.0146 30.4146ZM15.4167 24.0416L12.1646 33.8125C11.9299 34.5298 11.8683 35.2926 11.9848 36.0383C12.1013 36.784 12.3926 37.4916 12.8349 38.1032C13.2773 38.7148 13.858 39.213 14.5298 39.5572C15.2016 39.9013 15.9452 40.0816 16.7 40.0833C17.1962 40.0787 17.6885 39.995 18.1584 39.8354L27.6667 36.6708C22.3002 33.9301 17.9926 29.4891 15.4167 24.0416Z" fill="#FFEEC8"/>
</svg>
