<svg width="52" height="52" viewBox="0 0 52 52" fill="none" xmlns="http://www.w3.org/2000/svg">
<circle cx="26" cy="26" r="26" fill="#FF9940" fill-opacity="0.6"/>
<path d="M21.3958 17.4792C21.3958 16.8089 21.5279 16.1452 21.7844 15.5259C22.0409 14.9066 22.4168 14.3439 22.8908 13.87C23.3648 13.396 23.9275 13.02 24.5467 12.7635C25.166 12.507 25.8297 12.375 26.5 12.375C27.1703 12.375 27.834 12.507 28.4533 12.7635C29.0725 13.02 29.6352 13.396 30.1092 13.87C30.5832 14.3439 30.9591 14.9066 31.2156 15.5259C31.4721 16.1452 31.6042 16.8089 31.6042 17.4792C31.6042 18.8329 31.0664 20.1311 30.1092 21.0884C29.152 22.0456 27.8537 22.5833 26.5 22.5833C25.1463 22.5833 23.848 22.0456 22.8908 21.0884C21.9336 20.1311 21.3958 18.8329 21.3958 17.4792ZM15.5625 24.0417C16.5294 24.0417 17.4568 23.6576 18.1405 22.9738C18.8242 22.2901 19.2083 21.3628 19.2083 20.3958C19.2083 19.4289 18.8242 18.5016 18.1405 17.8178C17.4568 17.1341 16.5294 16.75 15.5625 16.75C14.5956 16.75 13.6682 17.1341 12.9845 17.8178C12.3008 18.5016 11.9167 19.4289 11.9167 20.3958C11.9167 21.3628 12.3008 22.2901 12.9845 22.9738C13.6682 23.6576 14.5956 24.0417 15.5625 24.0417ZM41.0833 20.3958C41.0833 21.3628 40.6992 22.2901 40.0155 22.9738C39.3318 23.6576 38.4044 24.0417 37.4375 24.0417C36.4706 24.0417 35.5432 23.6576 34.8595 22.9738C34.1758 22.2901 33.7917 21.3628 33.7917 20.3958C33.7917 19.4289 34.1758 18.5016 34.8595 17.8178C35.5432 17.1341 36.4706 16.75 37.4375 16.75C38.4044 16.75 39.3318 17.1341 40.0155 17.8178C40.6992 18.5016 41.0833 19.4289 41.0833 20.3958ZM24.3125 25.5C22.3 25.5 20.6667 27.1333 20.6667 29.1458V32.7917C20.6667 34.3388 21.2812 35.8225 22.3752 36.9165C23.4692 38.0104 24.9529 38.625 26.5 38.625C28.0471 38.625 29.5308 38.0104 30.6248 36.9165C31.7187 35.8225 32.3333 34.3388 32.3333 32.7917V29.1458C32.3333 27.1333 30.7 25.5 28.6875 25.5H24.3125ZM17.75 29.1458C17.75 28.3029 17.9075 27.4979 18.1992 26.76L14.6087 27.7225C13.6753 27.9727 12.8794 28.5833 12.3959 29.4201C11.9124 30.2569 11.781 31.2513 12.0304 32.185L12.5962 34.2996C12.7946 35.0396 13.1367 35.7334 13.6032 36.3412C14.0697 36.9489 14.6513 37.4589 15.3149 37.8419C15.9785 38.2248 16.711 38.4733 17.4706 38.5732C18.2302 38.673 19.0021 38.6222 19.7421 38.4237L19.7917 38.4092C18.4728 36.8344 17.7501 34.8458 17.75 32.7917V29.1458ZM35.25 32.7917C35.25 34.9296 34.4829 36.8896 33.2083 38.4121L33.255 38.4237C34.7491 38.8238 36.3409 38.614 37.6804 37.8406C39.0199 37.0672 39.9973 35.7935 40.3979 34.2996L40.9637 32.185C41.2132 31.2513 41.0817 30.2569 40.5982 29.4201C40.1148 28.5833 39.3189 27.9727 38.3854 27.7225L34.8037 26.76C35.0925 27.5008 35.25 28.3058 35.25 29.1458V32.7917Z" fill="#FFEEC8"/>
</svg>
