<svg width="52" height="52" viewBox="0 0 52 52" fill="none" xmlns="http://www.w3.org/2000/svg">
<circle cx="26" cy="26" r="26" fill="#FF9940" fill-opacity="0.6"/>
<path d="M22.7066 10.3056C22.8513 10.3774 22.9784 10.4803 23.0786 10.607C23.1788 10.7337 23.2497 10.8811 23.2863 11.0384C23.3256 11.2113 24.4062 15.8356 24.4062 18.9375C24.4062 21.0156 23.4394 22.8684 21.9344 24.0694C21.3875 24.5069 21.125 24.9838 21.125 25.3819V26.445C21.125 26.496 21.1279 26.5442 21.1337 26.5894C21.2081 27.1319 21.4772 29.1466 21.7288 31.2356C21.9759 33.2853 22.2188 35.5209 22.2188 36.4375C22.2188 37.5978 21.7578 38.7106 20.9373 39.5311C20.1169 40.3516 19.0041 40.8125 17.8438 40.8125C16.6834 40.8125 15.5706 40.3516 14.7502 39.5311C13.9297 38.7106 13.4688 37.5978 13.4688 36.4375C13.4688 35.5188 13.7116 33.2875 13.9588 31.2356C14.2103 29.1466 14.4794 27.1319 14.5538 26.5894L14.5625 26.445V25.3819C14.5625 24.9838 14.3 24.5069 13.7531 24.0694C12.982 23.4547 12.3593 22.6741 11.9314 21.7856C11.5034 20.8972 11.2812 19.9237 11.2813 18.9375C11.2813 15.8466 12.3531 11.2463 12.4013 11.0406C12.4581 10.7975 12.5957 10.5807 12.7915 10.4258C12.9874 10.2709 13.23 10.1869 13.4797 10.1875C14.0922 10.1875 14.5888 10.6841 14.5888 11.2966V17.8547C14.5801 18.0024 14.6019 18.1503 14.6526 18.2893C14.7034 18.4283 14.7821 18.5554 14.8839 18.6628C14.9858 18.7702 15.1085 18.8556 15.2446 18.9137C15.3807 18.9718 15.5272 19.0013 15.6752 19.0006C15.8232 18.9998 15.9694 18.9688 16.1049 18.9093C16.2404 18.8498 16.3623 18.7632 16.463 18.6548C16.5637 18.5464 16.6411 18.4185 16.6905 18.279C16.7399 18.1395 16.7601 17.9914 16.75 17.8438V11.2813C16.75 10.9912 16.8652 10.713 17.0704 10.5079C17.2755 10.3027 17.5537 10.1875 17.8438 10.1875C18.1338 10.1875 18.412 10.3027 18.6171 10.5079C18.8223 10.713 18.9375 10.9912 18.9375 11.2813V17.9006C18.9436 18.1878 19.0635 18.4608 19.2709 18.6596C19.4783 18.8583 19.7561 18.9666 20.0433 18.9605C20.3305 18.9544 20.6035 18.8345 20.8022 18.6271C21.001 18.4197 21.1092 18.1419 21.1031 17.8547V11.2922C21.1031 10.6819 21.5975 10.1875 22.21 10.1875C22.2581 10.1875 22.4725 10.1875 22.7066 10.3056ZM27.6875 20.0313C27.6875 17.4205 28.7246 14.9167 30.5707 13.0707C32.4167 11.2246 34.9205 10.1875 37.5312 10.1875C37.8213 10.1875 38.0995 10.3027 38.3046 10.5079C38.5098 10.713 38.625 10.9912 38.625 11.2813V24.3472L38.6666 24.7344C38.8406 26.367 39.0075 28.0003 39.1675 29.6344C39.4366 32.3819 39.7188 35.4619 39.7188 36.4375C39.7188 37.5978 39.2578 38.7106 38.4373 39.5311C37.6169 40.3516 36.5041 40.8125 35.3438 40.8125C34.1834 40.8125 33.0706 40.3516 32.2502 39.5311C31.4297 38.7106 30.9688 37.5978 30.9688 36.4375C30.9688 35.4619 31.2509 32.3819 31.52 29.6344C31.6578 28.2409 31.7956 26.9066 31.8984 25.9178L31.9422 25.5H29.875C29.2948 25.5 28.7384 25.2695 28.3282 24.8593C27.918 24.4491 27.6875 23.8927 27.6875 23.3125V20.0313Z" fill="#FFEEC8"/>
</svg>
