<svg width="52" height="52" viewBox="0 0 52 52" fill="none" xmlns="http://www.w3.org/2000/svg">
<circle cx="26" cy="26" r="26" fill="#FF9940" fill-opacity="0.6"/>
<path d="M16.5673 16.0208H22.125V18.9374H16.2916V21.8541H22.125V24.7708H16.2916V26.9583C16.2916 27.2033 16.3013 27.4463 16.3208 27.6874H22.125V30.6041H17.085C17.7832 32.1275 18.9042 33.4183 20.3147 34.3231C21.7252 35.2279 23.3659 35.7087 25.0416 35.7083V37.1666H17.75V40.0833H35.25V37.1666H27.9583V35.7083C29.6341 35.7087 31.2747 35.2279 32.6852 34.3231C34.0957 33.4183 35.2167 32.1275 35.915 30.6041H30.875V27.6874H36.6791C36.6986 27.4463 36.7083 27.2033 36.7083 26.9583V24.7708H30.875V21.8541H36.7083V18.9374H30.875V16.0208H36.4327C35.9476 14.1421 34.8519 12.478 33.3179 11.2901C31.7839 10.1021 29.8985 9.45776 27.9583 9.45825H25.0416C23.1014 9.45776 21.2161 10.1021 19.682 11.2901C18.148 12.478 17.0523 14.1421 16.5673 16.0208Z" fill="#FFEEC8"/>
</svg>
